<svg viewBox="0 0 24 24" fill="none" xmlns="http://www.w3.org/2000/svg"><path fill-rule="evenodd" clip-rule="evenodd" d="M12 2C6.477 2 2 6.477 2 12C2 13.754 2.451 15.404 3.238 16.852L2 22L7.265 20.767C8.685 21.558 10.297 22 12 22C17.523 22 22 17.523 22 12C22 6.477 17.523 2 12 2ZM8.423 7.828C8.243 7.828 7.943 7.896 7.674 8.188C7.404 8.481 6.656 9.182 6.656 10.613C6.656 12.045 7.703 13.418 7.853 13.618C8.003 13.818 9.873 16.845 12.862 18.016C15.352 18.992 15.86 18.796 16.429 18.729C16.998 18.663 18.271 17.962 18.54 17.228C18.81 16.495 18.81 15.877 18.735 15.744C18.66 15.611 18.451 15.544 18.151 15.394C17.852 15.244 16.37 14.51 16.086 14.411C15.801 14.311 15.592 14.261 15.382 14.561C15.173 14.861 14.589 15.544 14.41 15.744C14.23 15.944 14.051 15.978 13.751 15.828C13.452 15.678 12.482 15.362 11.332 14.338C10.437 13.541 9.837 12.56 9.657 12.261C9.478 11.961 9.638 11.795 9.788 11.645C9.923 11.51 10.088 11.294 10.237 11.127C10.387 10.96 10.437 10.844 10.537 10.644C10.637 10.444 10.587 10.277 10.512 10.127C10.437 9.977 9.837 8.51 9.587 7.91C9.345 7.332 9.098 7.409 8.914 7.399C8.749 7.39 8.569 7.388 8.39 7.388" fill="#25D366"/></svg>
